<svg xmlns="http://www.w3.org/2000/svg" xmlns:xlink="http://www.w3.org/1999/xlink" viewBox="0 0 53.319 56.089">
  <defs>
    <linearGradient id="linear-gradient" x1="-0.168" y1="-0.136" x2="1.33" y2="1.304" gradientUnits="objectBoundingBox">
      <stop offset="0" stop-color="#0059b9"/>
      <stop offset="1" stop-color="#007aff"/>
    </linearGradient>
    <linearGradient id="linear-gradient-2" x2="1" y2="1" gradientUnits="objectBoundingBox">
      <stop offset="0" stop-color="#fff"/>
      <stop offset="0.49" stop-color="#fff"/>
      <stop offset="1" stop-color="#fff"/>
    </linearGradient>
    <filter id="Trazado_74" x="0" y="0" width="53.319" height="56.089" filterUnits="userSpaceOnUse">
      <feOffset dy="3" input="SourceAlpha"/>
      <feGaussianBlur stdDeviation="6" result="blur"/>
      <feFlood flood-opacity="0.102"/>
      <feComposite operator="in" in2="blur"/>
      <feComposite in="SourceGraphic"/>
    </filter>
    <linearGradient id="linear-gradient-3" x1="0.5" x2="0.5" y2="1" gradientUnits="objectBoundingBox">
      <stop offset="0" stop-color="#fff"/>
      <stop offset="1" stop-color="#d5e9ff"/>
    </linearGradient>
  </defs>
  <g id="Grupo_1" data-name="Grupo 1" transform="translate(7.234 5.618)">
    <path id="Trazado_77" data-name="Trazado 77" d="M19.426,0A19.426,19.426,0,1,1,0,19.426,19.426,19.426,0,0,1,19.426,0Z" fill="url(#linear-gradient)"/>
    <g transform="matrix(1, 0, 0, 1, -7.23, -5.62)" filter="url(#Trazado_74)">
      <path id="Trazado_74-2" data-name="Trazado 74" d="M8768.048,330.769v3.762s9.055-.128,10.427,0,1.631.588,1.79.843a3.011,3.011,0,0,1,.236,1.76,1.524,1.524,0,0,1-.72,1c-.415.255-5.156,1.08-5.156,1.08l-6.577,1.375v3.89l10.156-2.027s1.1-.24,1.577.094a5.234,5.234,0,0,1,.793.687,1.994,1.994,0,0,1,.4,1,3.407,3.407,0,0,1-.069,1.1,2.087,2.087,0,0,1-.489.867,2,2,0,0,1-1.021.584c-.481.112-4.62.069-4.62.069v-2.439l-4.25.876v5.564l8.922-.034a7.08,7.08,0,0,0,3.186-.953,6.184,6.184,0,0,0,1.914-1.949,4.717,4.717,0,0,0,.734-1.791,6.491,6.491,0,0,0-.072-2.545,4.436,4.436,0,0,0-.988-2.026,10.618,10.618,0,0,0-1.6-1.314,4.688,4.688,0,0,0,.885-.756,8.092,8.092,0,0,0,.987-1.606,4.742,4.742,0,0,0,.352-1.657,5.673,5.673,0,0,0-.2-1.829,6.8,6.8,0,0,0-.772-1.4,9.811,9.811,0,0,0-1.177-1.091,9.036,9.036,0,0,0-1.425-.747,10.159,10.159,0,0,0-1.555-.361Z" transform="translate(-8750.05 -315.77)" fill="url(#linear-gradient-2)"/>
    </g>
    <path id="Trazado_75" data-name="Trazado 75" d="M8813.82,423.792v4.28l4.28-.9v-3.381Z" transform="translate(-8800.766 -409.308)" fill="url(#linear-gradient-3)"/>
  </g>
</svg>
